<?xml version="1.0"?>
<svg xmlns="http://www.w3.org/2000/svg" viewBox="0 0 64 64" width="512" height="512"><g id="cog_android_app_aplication_phone" data-name="cog android app aplication phone"><path d="M60.105,16.621A14.537,14.537,0,0,0,47.364,3.881a132.247,132.247,0,0,0-30.728,0A14.537,14.537,0,0,0,3.9,16.621a132.366,132.366,0,0,0,0,30.729A14.537,14.537,0,0,0,16.636,60.09a132.247,132.247,0,0,0,30.728,0A14.537,14.537,0,0,0,60.105,47.35,132.366,132.366,0,0,0,60.105,16.621ZM32,44.986a13,13,0,1,1,13-13A13,13,0,0,1,32,44.986Z" style="fill:#4370ff"/><path d="M32,20.986a10.989,10.989,0,0,1,2,.191V10.986H30v6.149a14.909,14.909,0,0,0-7.082,2.94l-4.353-4.353L15.737,18.55,20.09,22.9a14.9,14.9,0,0,0-2.941,7.083H11v4h6.149a14.9,14.9,0,0,0,2.941,7.082l-4.353,4.353,2.828,2.828L22.918,43.9A14.909,14.909,0,0,0,30,46.836v6.15h4v-6.15a14.909,14.909,0,0,0,7.082-2.94l4.353,4.353,2.828-2.828L43.91,41.068a14.9,14.9,0,0,0,2.941-7.082H53v-4H46.859A14.909,14.909,0,0,0,43.917,22.9l4.346-4.347-2.828-2.828-4.352,4.353A15,15,0,0,0,38,18.247v4.531a10.986,10.986,0,1,1-6-1.792Z"/><path d="M62.1,16.381a16.464,16.464,0,0,0-14.5-14.5A134.329,134.329,0,0,0,34,1V5a131.03,131.03,0,0,1,13.135.85A12.479,12.479,0,0,1,58.122,16.844a131.074,131.074,0,0,1,0,30.283A12.479,12.479,0,0,1,47.135,58.119a130.851,130.851,0,0,1-30.27,0A12.479,12.479,0,0,1,5.878,47.127a131.074,131.074,0,0,1,0-30.283A12.479,12.479,0,0,1,16.865,5.852,131.03,131.03,0,0,1,30,5V1a134.329,134.329,0,0,0-13.6.877,16.464,16.464,0,0,0-14.5,14.5,134.946,134.946,0,0,0,0,31.209,16.464,16.464,0,0,0,14.5,14.5,134.722,134.722,0,0,0,31.2,0,16.464,16.464,0,0,0,14.5-14.5A134.946,134.946,0,0,0,62.1,16.381Z"/></g></svg>
