<svg width="600" height="450" viewBox="0 0 800 600" fill="none" xmlns="http://www.w3.org/2000/svg" data-reactroot="">
<path d="M611.687 390.308C637.791 390.308 658.953 369.147 658.953 343.043C658.953 316.939 637.791 295.777 611.687 295.777C585.583 295.777 564.422 316.939 564.422 343.043C564.422 369.147 585.583 390.308 611.687 390.308Z" fill="#C4B6FF"></path>
<path d="M188.265 312.844C214.369 312.844 235.531 291.682 235.531 265.579C235.531 239.475 214.369 218.313 188.265 218.313C162.162 218.313 141 239.475 141 265.579C141 291.682 162.162 312.844 188.265 312.844Z" fill="#C4B6FF"></path>
<path d="M427.742 590.004C453.846 590.004 475.007 568.843 475.007 542.739C475.007 516.635 453.846 495.474 427.742 495.474C401.638 495.474 380.477 516.635 380.477 542.739C380.477 568.843 401.638 590.004 427.742 590.004Z" fill="#C4B6FF"></path>
<path d="M410.16 343.044C436.264 343.044 457.425 321.882 457.425 295.778C457.425 269.674 436.264 248.513 410.16 248.513C384.056 248.513 362.895 269.674 362.895 295.778C362.895 321.882 384.056 343.044 410.16 343.044Z" fill="#7D55FF"></path>
<path d="M542.217 104.531C568.321 104.531 589.482 83.3698 589.482 57.2659C589.482 31.1619 568.321 10 542.217 10C516.113 10 494.951 31.1619 494.951 57.2659C494.951 83.3698 516.113 104.531 542.217 104.531Z" fill="#C4B6FF"></path>
<path d="M445.504 246.212C443.799 247.197 442.334 247.286 440.78 245.91C438.329 244.294 437.583 241.692 439.199 239.241L510.764 109.787C512.38 107.336 514.981 106.59 517.432 108.206C519.883 109.822 520.629 112.424 519.013 114.875L447.449 244.328C447.209 245.225 446.641 245.555 445.504 246.212Z" fill="#B5CDFB"></path>
<path d="M421.382 469.151C419.598 468.316 418.966 466.57 418.333 464.824L415.746 375.907C415.671 372.972 417.973 371.151 420.313 370.797C423.248 370.721 425.07 373.023 425.424 375.363L428.011 464.28C428.087 467.215 425.784 469.037 423.444 469.391C423.444 469.391 421.976 469.429 421.382 469.151Z" fill="#B5CDFB"></path>
<path d="M537.495 331.867C536.839 331.867 536.839 331.867 536.182 331.867L479.07 318.081C476.444 317.425 474.475 314.799 475.131 312.173C475.788 309.547 478.413 308.234 481.039 308.234L538.152 322.02C540.777 322.676 542.747 325.302 542.09 327.928C541.434 329.898 539.465 331.867 537.495 331.867Z" fill="#B5CDFB"></path>
<path d="M322.194 294.452C321.538 294.452 321.538 294.452 320.882 294.452L263.769 280.666C261.144 280.01 259.174 277.384 259.83 274.758C260.487 272.132 263.113 270.819 265.739 270.819L322.851 284.605C325.477 285.261 327.446 287.887 326.79 290.513C326.133 293.139 324.164 294.452 322.194 294.452Z" fill="#B5CDFB"></path>
</svg>
