<svg width="600" height="450" viewBox="0 0 800 600" fill="none" xmlns="http://www.w3.org/2000/svg" data-reactroot="">
<path d="M800 63V167.262C791.753 158.211 781.81 151.539 767.172 151.539C721.606 151.539 721.606 216.109 676.046 216.109C630.486 216.109 630.486 151.539 584.931 151.539C539.371 151.539 539.371 216.109 493.81 216.109C448.25 216.109 448.25 151.539 402.69 151.539C402.39 151.539 402.095 151.544 399.755 151.55H398.283C397.96 151.544 397.638 151.539 397.31 151.539C396.899 151.539 396.493 151.544 396.088 151.555C351.744 152.7 351.339 216.109 306.19 216.109C260.629 216.109 260.629 151.539 215.069 151.539C169.514 151.539 169.514 216.109 123.954 216.109C78.3939 216.109 78.3939 151.539 32.8281 151.539C18.1896 151.539 8.24731 158.211 0 167.262V63H800Z" fill="#7D55FF"></path>
<path d="M800 167.262V496.487C800 507.521 795.526 517.516 788.29 524.745C781.06 531.978 771.068 536.451 760.025 536.451C737.945 536.451 720.05 518.555 720.05 496.487V349.095C720.05 338.061 715.576 328.066 708.34 320.832C701.01 313.51 690.845 309.009 679.63 309.132C657.639 309.376 640.1 327.622 640.1 349.606V386.964C640.1 397.998 635.626 407.993 628.39 415.227C621.16 422.455 611.162 426.933 600.125 426.933C578.045 426.933 560.144 409.032 560.144 386.964V339.256C560.028 320.955 549.708 305.931 532.835 294.181C493.516 266.785 439.597 295.053 439.597 342.967V343.756C439.597 365.663 422.069 383.82 400.161 383.981C378.076 384.142 360.125 366.296 360.125 344.256V342.795C360.125 295.314 306.907 266.69 267.682 293.464C250.309 305.326 239.733 320.588 239.856 339.256V386.964C239.856 409.032 221.955 426.933 199.875 426.933C188.838 426.933 178.84 422.455 171.61 415.227C164.374 407.993 159.9 397.998 159.9 386.964V349.606C159.9 327.622 142.361 309.376 120.37 309.132C109.155 309.009 98.9899 313.51 91.6596 320.832C84.4238 328.066 79.95 338.061 79.95 349.095V496.487C79.95 518.555 62.0549 536.451 39.975 536.451C28.9323 536.451 18.9399 531.978 11.7096 524.745C4.47378 517.516 0 507.521 0 496.487V167.262C8.24731 158.211 18.1896 151.539 32.8281 151.539C78.3939 151.539 78.3939 216.109 123.954 216.109C169.514 216.109 169.514 151.539 215.069 151.539C260.629 151.539 260.629 216.109 306.19 216.109C351.75 216.109 351.75 151.539 397.31 151.539C398.138 151.539 401.89 151.489 402.69 151.539C401.862 151.539 403.49 151.489 402.69 151.539C448.25 151.539 448.25 216.109 493.81 216.109C539.371 216.109 539.371 151.539 584.931 151.539C630.486 151.539 630.486 216.109 676.046 216.109C721.606 216.109 721.606 151.539 767.172 151.539C781.81 151.539 791.753 158.211 800 167.262Z" fill="#C4B6FF"></path>
<path fill-rule="evenodd" clip-rule="evenodd" d="M297.142 156.427C294.43 159.139 290.032 159.139 287.32 156.427L255.217 124.324C233.628 102.736 198.626 102.736 177.038 124.325L144.935 156.427C142.223 159.139 137.826 159.139 135.114 156.427C132.402 153.715 132.402 149.318 135.114 146.606L167.216 114.503C194.229 87.4905 238.025 87.4903 265.038 114.503L297.142 146.606C299.854 149.318 299.854 153.715 297.142 156.427Z" fill="#B5CDFB"></path>
<path fill-rule="evenodd" clip-rule="evenodd" d="M520.804 408.913C523.516 406.201 527.913 406.201 530.625 408.913L562.728 441.016C584.317 462.604 619.319 462.604 640.907 441.016L673.01 408.913C675.722 406.201 680.119 406.201 682.832 408.913C685.544 411.625 685.544 416.023 682.832 418.735L650.729 450.837C623.716 477.85 579.92 477.85 552.907 450.838L520.804 418.735C518.092 416.023 518.091 411.625 520.804 408.913Z" fill="#B5CDFB"></path>
</svg>
