<svg width="400" height="300" viewBox="0 0 800 600" fill="none" xmlns="http://www.w3.org/2000/svg" data-reactroot="">
<path d="M263.81 454.743H199.44C194.146 454.743 189.855 450.452 189.855 445.158V443.092C189.855 437.798 194.146 433.507 199.44 433.507H263.81C269.104 433.507 273.395 437.798 273.395 443.092V445.158C273.395 450.452 269.104 454.743 263.81 454.743Z" stroke="#78D2EE" stroke-miterlimit="10"></path>
<path d="M229.14 32.0508H220.979V73.7491H229.14V32.0508Z" fill="#B5CDFB"></path>
<path d="M66.3 94.8438H206.558C212.422 94.8438 217.176 99.5976 217.176 105.462V105.462C217.176 111.326 212.422 116.08 206.558 116.08H66.3C60.4358 116.08 55.6819 111.326 55.6819 105.462V105.462C55.6819 99.5976 60.4358 94.8438 66.3 94.8438Z" stroke="#78D2EE" stroke-width="1.26201" stroke-miterlimit="10"></path>
<path d="M235.186 63.4604V118.396C235.186 126.295 228.782 132.698 220.884 132.698H202.206C194.307 132.698 187.904 126.295 187.904 118.396V63.4604C187.904 55.5615 194.307 49.1582 202.206 49.1582H220.884C228.782 49.1582 235.186 55.5615 235.186 63.4604Z" stroke="#78D2EE" stroke-width="1.35439" stroke-miterlimit="10"></path>
<path d="M480.335 394.688V386.527L64.6117 386.527V394.688L480.335 394.688Z" fill="#B5CDFB"></path>
<path d="M90.5335 133.738H82.3728V204.203H90.5335V133.738Z" fill="#EBEBEB"></path>
<path d="M371.496 367.714H367.615V412.784H371.496V367.714Z" fill="#B5CDFB"></path>
<path d="M380.17 387.529H376.288V432.599H380.17V387.529Z" fill="#B5CDFB"></path>
<path d="M757.045 509.396V507.455H711.975V509.396H757.045Z" fill="#C4B6FF"></path>
<path d="M737.23 516.128V514.188H692.16V516.128H737.23Z" fill="#C4B6FF"></path>
<path d="M475.3 390.065H105.221C94.8557 390.065 86.4531 381.663 86.4531 371.298V124.229C86.4531 113.863 94.8557 105.461 105.221 105.461H475.3C485.665 105.461 494.068 113.863 494.068 124.229V371.298C494.068 381.663 485.665 390.065 475.3 390.065Z" fill="#C4B6FF"></path>
<path d="M332.15 339.612H394.155" stroke="#FFE458" stroke-width="2" stroke-miterlimit="10"></path>
<path d="M332.15 350.694H394.155" stroke="#FFE458" stroke-width="2" stroke-miterlimit="10"></path>
<path d="M305.54 328.53H125.503C123.191 328.53 121.316 326.655 121.316 324.342V266.188C121.316 263.875 123.191 262 125.503 262H305.54C307.853 262 309.727 263.875 309.727 266.188V324.342C309.727 326.655 307.853 328.53 305.54 328.53Z" fill="#B5CDFB"></path>
<path d="M445.284 328.53H336.338C334.025 328.53 332.15 326.655 332.15 324.342V266.188C332.15 263.875 334.025 262 336.338 262H445.284C447.597 262 449.472 263.875 449.472 266.188V324.342C449.472 326.655 447.597 328.53 445.284 328.53Z" fill="#7D55FF"></path>
<path d="M445.284 223.356H125.503C123.191 223.356 121.316 221.481 121.316 219.168V158.506C121.316 156.193 123.191 154.318 125.503 154.318H445.284C447.597 154.318 449.472 156.193 449.472 158.506V219.168C449.472 221.481 447.597 223.356 445.284 223.356Z" fill="#B5CDFB"></path>
<path d="M445.284 247.223H125.503C123.191 247.223 121.316 245.348 121.316 243.035V243.035C121.316 240.723 123.191 238.848 125.503 238.848H445.284C447.597 238.848 449.472 240.723 449.472 243.035V243.035C449.472 245.348 447.597 247.223 445.284 247.223Z" fill="#7D55FF"></path>
<path d="M125.258 130.551C127.436 130.551 129.201 128.786 129.201 126.609C129.201 124.432 127.436 122.667 125.258 122.667C123.081 122.667 121.316 124.432 121.316 126.609C121.316 128.786 123.081 130.551 125.258 130.551Z" fill="#B5CDFB"></path>
<path d="M139.131 130.551C141.309 130.551 143.074 128.786 143.074 126.609C143.074 124.432 141.309 122.667 139.131 122.667C136.954 122.667 135.189 124.432 135.189 126.609C135.189 128.786 136.954 130.551 139.131 130.551Z" fill="#B5CDFB"></path>
<path d="M153.005 130.551C155.182 130.551 156.947 128.786 156.947 126.609C156.947 124.432 155.182 122.667 153.005 122.667C150.827 122.667 149.062 124.432 149.062 126.609C149.062 128.786 150.827 130.551 153.005 130.551Z" fill="#B5CDFB"></path>
<path d="M121.316 339.612H261.755" stroke="#FFE458" stroke-width="2" stroke-miterlimit="10"></path>
<path d="M121.316 350.694H261.755" stroke="#FFE458" stroke-width="2" stroke-miterlimit="10"></path>
<path d="M121.316 361.777H205.904" stroke="#FFE458" stroke-width="2" stroke-miterlimit="10"></path>
<path d="M385.162 125.012H354.918V128.206H385.162V125.012Z" fill="#7D55FF"></path>
<path d="M421.054 125.012H390.811V128.205H421.054V125.012Z" fill="#7D55FF"></path>
<path d="M456.947 125.012H426.703V128.205H456.947V125.012Z" fill="#7D55FF"></path>
<path d="M138.754 499.869C146.543 499.869 152.88 506.206 152.88 513.995C152.88 521.784 146.543 528.121 138.754 528.121C130.965 528.121 124.628 521.784 124.628 513.995C124.628 506.206 130.965 499.869 138.754 499.869ZM138.754 494.37C127.916 494.37 119.129 503.156 119.129 513.995C119.129 524.833 127.916 533.62 138.754 533.62C149.592 533.62 158.379 524.833 158.379 513.995C158.379 503.156 149.592 494.37 138.754 494.37Z" fill="#C4B6FF"></path>
<path d="M141.837 491.496H135.671V496.76H141.837V491.496Z" fill="#C4B6FF"></path>
<path d="M141.837 530.987H135.671V536.252H141.837V530.987Z" fill="#C4B6FF"></path>
<path d="M152.397 495.87L148.675 499.592L153.036 503.953L156.758 500.23L152.397 495.87Z" fill="#C4B6FF"></path>
<path d="M124.473 523.795L120.75 527.517L125.111 531.878L128.833 528.156L124.473 523.795Z" fill="#C4B6FF"></path>
<path d="M161.132 510.79H155.868V516.957H161.132V510.79Z" fill="#C4B6FF"></path>
<path d="M121.64 510.79H116.376V516.957H121.64V510.79Z" fill="#C4B6FF"></path>
<path d="M153.036 523.795L148.675 528.156L152.397 531.878L156.758 527.517L153.036 523.795Z" fill="#C4B6FF"></path>
<path d="M125.111 495.87L120.75 500.23L124.473 503.953L128.833 499.592L125.111 495.87Z" fill="#C4B6FF"></path>
<path d="M106.185 481.627C111.788 481.627 116.346 486.186 116.346 491.789C116.346 497.392 111.788 501.95 106.185 501.95C100.582 501.95 96.0234 497.392 96.0234 491.789C96.0234 486.186 100.582 481.627 106.185 481.627ZM106.185 477.672C98.3885 477.672 92.0682 483.992 92.0682 491.789C92.0682 499.585 98.3885 505.905 106.185 505.905C113.981 505.905 120.302 499.585 120.302 491.789C120.302 483.992 113.981 477.672 106.185 477.672Z" fill="#C4B6FF"></path>
<path d="M109.227 474.901H103.143V480.094H109.227V474.901Z" fill="#C4B6FF"></path>
<path d="M109.227 503.309H103.143V508.502H109.227V503.309Z" fill="#C4B6FF"></path>
<path d="M115.914 477.671L112.241 481.343L116.543 485.645L120.216 481.973L115.914 477.671Z" fill="#C4B6FF"></path>
<path d="M95.8265 497.758L92.1541 501.43L96.4562 505.732L100.129 502.06L95.8265 497.758Z" fill="#C4B6FF"></path>
<path d="M122.985 488.659H117.792V494.743H122.985V488.659Z" fill="#C4B6FF"></path>
<path d="M94.578 488.659H89.3844V494.743H94.578V488.659Z" fill="#C4B6FF"></path>
<path d="M116.543 497.758L112.241 502.06L115.914 505.732L120.216 501.43L116.543 497.758Z" fill="#C4B6FF"></path>
<path d="M96.4562 477.671L92.1541 481.973L95.8265 485.645L100.129 481.343L96.4562 477.671Z" fill="#C4B6FF"></path>
<path d="M326.363 55.3288H311.478C310.511 55.3288 309.728 54.5453 309.728 53.5788V53.5788C309.728 48.9118 313.511 45.1284 318.178 45.1284H319.662C324.329 45.1284 328.113 48.9118 328.113 53.5788V53.5788C328.113 54.5453 327.329 55.3288 326.363 55.3288Z" fill="#C4B6FF"></path>
<path d="M318.92 42.876C321.665 42.876 323.89 40.6508 323.89 37.9058C323.89 35.1608 321.665 32.9355 318.92 32.9355C316.175 32.9355 313.95 35.1608 313.95 37.9058C313.95 40.6508 316.175 42.876 318.92 42.876Z" fill="#C4B6FF"></path>
<path d="M354.448 55.3288H339.563C338.597 55.3288 337.813 54.5453 337.813 53.5788V53.5788C337.813 48.9118 341.596 45.1284 346.263 45.1284H347.748C352.415 45.1284 356.198 48.9118 356.198 53.5788V53.5788C356.198 54.5453 355.415 55.3288 354.448 55.3288Z" fill="#C4B6FF"></path>
<path d="M347.006 42.876C349.751 42.876 351.976 40.6508 351.976 37.9058C351.976 35.1608 349.751 32.9355 347.006 32.9355C344.261 32.9355 342.035 35.1608 342.035 37.9058C342.035 40.6508 344.261 42.876 347.006 42.876Z" fill="#C4B6FF"></path>
<path d="M382.534 55.3288H367.649C366.683 55.3288 365.899 54.5453 365.899 53.5788V53.5788C365.899 48.9118 369.682 45.1284 374.349 45.1284H375.834C380.501 45.1284 384.284 48.9118 384.284 53.5788V53.5788C384.284 54.5453 383.5 55.3288 382.534 55.3288Z" fill="#C4B6FF"></path>
<path d="M375.092 42.876C377.837 42.876 380.062 40.6508 380.062 37.9058C380.062 35.1608 377.837 32.9355 375.092 32.9355C372.347 32.9355 370.121 35.1608 370.121 37.9058C370.121 40.6508 372.347 42.876 375.092 42.876Z" fill="#C4B6FF"></path>
<path d="M651.379 259.985V553.92H438.253V259.985C438.253 230.476 458.971 206.595 486.861 206.595L504.165 195.231L520.885 184.248H570.574L580.508 190.665L605.438 206.768C633.337 206.768 651.379 230.476 651.379 259.985Z" fill="#E6E7E8"></path>
<path d="M519.496 184.248H571.896C578.105 189.213 577.597 239.099 561.458 272.257C558.499 278.338 553.842 283.567 548.805 287.896C513.85 244.464 512.888 189.531 519.496 184.248Z" fill="#C4B6FF"></path>
<path d="M519.494 184.248L471.117 218.709L507.566 224.057L481.72 238.161L523.744 303.041C523.744 303.041 571.079 310.405 563.012 303.041C514.193 258.471 512.087 190.174 519.494 184.248Z" fill="white"></path>
<path d="M571.899 184.248L620.276 218.709L583.827 224.057L609.673 238.161L567.649 303.041H523.744C523.744 303.041 551.738 292.234 561.459 272.259C577.593 239.101 578.102 189.211 571.899 184.248Z" fill="white"></path>
<path d="M567.649 303.041H523.744V553.922H567.649V303.041Z" fill="white"></path>
<path d="M472.827 516.188H445.522C434.967 516.188 426.411 507.631 426.411 497.077V433.031H491.937V497.077C491.937 507.631 483.381 516.188 472.827 516.188Z" stroke="#005B9D" stroke-width="1.87284" stroke-miterlimit="10" stroke-linecap="round"></path>
<path d="M497.294 416.354H421.054V439.856H497.294V416.354Z" fill="#7D55FF"></path>
<path d="M587.684 125.901C587.684 125.901 598.893 89.0532 593.678 77.9293C588.464 66.8053 567.85 52.9004 545.828 52.9004C523.806 52.9004 503.192 66.8053 497.977 77.9293C492.763 89.0532 503.972 125.901 503.972 125.901H587.684Z" fill="#393939"></path>
<path d="M504.74 138.2C508.453 137.284 510.083 130.95 508.381 124.053C506.678 117.157 502.288 112.309 498.574 113.226C494.861 114.143 493.231 120.477 494.933 127.373C496.636 134.27 501.027 139.117 504.74 138.2Z" fill="#FF9100"></path>
<path d="M596.722 127.373C598.425 120.477 596.795 114.143 593.081 113.226C589.368 112.309 584.977 117.157 583.275 124.053C581.572 130.95 583.202 137.284 586.915 138.201C590.629 139.117 595.019 134.27 596.722 127.373Z" fill="#FF9100"></path>
<path d="M568.969 161.59V212.208C568.969 226.545 558.885 238.165 546.431 238.165H545.224C532.771 238.165 522.687 226.545 522.687 212.208V161.59H568.969Z" fill="#FF9100"></path>
<path d="M573.09 80.2285H518.566C511.132 80.2285 505.096 86.2555 505.096 93.6985L506.096 156.473C506.096 160.665 529.644 179.771 530.584 180.562C531.617 181.431 532.95 181.955 534.406 181.955H557.25C558.706 181.955 560.039 181.431 561.072 180.562C562.012 179.771 585.56 160.665 585.56 156.473L586.56 93.6985C586.56 86.2555 580.524 80.2285 573.09 80.2285Z" fill="#FFAE00"></path>
<path d="M512.809 116.393C512.809 116.393 515.946 114.245 518.687 113.858C524.372 113.055 529.452 114.205 533.867 113.858" stroke="#393939" stroke-width="7.26146" stroke-miterlimit="10" stroke-linecap="round"></path>
<path d="M578.847 116.393C578.847 116.393 575.71 114.245 572.969 113.858C567.284 113.055 562.204 114.205 557.789 113.858" stroke="#393939" stroke-width="7.26146" stroke-miterlimit="10" stroke-linecap="round"></path>
<path d="M537.427 162.328C543.249 164.994 548.869 165.224 554.229 162.328" stroke="#393939" stroke-width="2" stroke-miterlimit="10" stroke-linecap="round"></path>
<path d="M555.517 149.865C555.22 148.423 552.935 146.65 551.461 147.978C548.752 150.42 543.294 151.493 540.195 147.978C538.883 146.49 536.436 148.423 536.139 149.865C535.842 151.306 537.177 152.799 539.12 153.199C539.857 153.351 540.799 153.573 541.701 153.713C542.502 154.54 544.039 155.108 545.828 155.108C547.616 155.108 549.154 154.54 549.955 153.713C550.857 153.573 551.799 153.351 552.536 153.199C554.479 152.799 555.814 151.306 555.517 149.865Z" fill="#FF9100"></path>
<path d="M539.56 148.323C539.56 148.323 543.631 120.652 545.78 120.652C547.928 120.652 552.294 148.801 552.294 148.801L545.305 153.11L539.56 148.323Z" fill="#FF9100"></path>
<path d="M533.681 139.853H512.013C509.357 139.853 507.203 137.699 507.203 135.043V119.121C507.203 116.465 509.357 114.312 512.013 114.312H537.349C540.006 114.312 542.159 116.465 542.159 119.121V131.374C542.159 136.057 538.363 139.853 533.681 139.853Z" stroke="#FFE458" stroke-width="0.897053" stroke-miterlimit="10" stroke-linecap="round"></path>
<path d="M579.642 139.853H557.975C553.292 139.853 549.496 136.057 549.496 131.374V119.121C549.496 116.465 551.65 114.312 554.306 114.312H579.642C582.299 114.312 584.452 116.465 584.452 119.121V135.043C584.452 137.699 582.299 139.853 579.642 139.853Z" stroke="#FFE458" stroke-width="0.897053" stroke-miterlimit="10" stroke-linecap="round"></path>
<path opacity="0.47" d="M579.643 114.311H558.144V113.762H534.422V114.311H512.013C509.357 114.311 507.203 116.465 507.203 119.121V135.043C507.203 137.699 509.357 139.853 512.013 139.853H533.681C538.363 139.853 542.159 136.057 542.159 131.374V130.751C542.159 128.725 543.802 127.082 545.828 127.082C547.854 127.082 549.496 128.725 549.496 130.751V131.374C549.496 136.057 553.292 139.853 557.975 139.853H579.642C582.299 139.853 584.452 137.699 584.452 135.043V119.121C584.452 116.465 582.299 114.311 579.643 114.311Z" fill="#B5CDFB"></path>
<path opacity="0.47" d="M507.235 119.663H502.894V130.401H507.235V119.663Z" fill="#B5CDFB"></path>
<path opacity="0.47" d="M588.762 119.663H584.421V130.401H588.762V119.663Z" fill="#B5CDFB"></path>
<path d="M644.104 516.188H616.799C606.244 516.188 597.688 507.631 597.688 497.077V433.031H663.215V497.077C663.215 507.631 654.659 516.188 644.104 516.188Z" stroke="#005B9D" stroke-width="1.87284" stroke-miterlimit="10" stroke-linecap="round"></path>
<path d="M668.572 416.354H592.331V439.856H668.572V416.354Z" fill="#7D55FF"></path>
<path d="M555.662 320.918H535.731V323.699H555.662V320.918Z" fill="#C4B6FF"></path>
<path d="M555.662 369.084H535.731V371.865H555.662V369.084Z" fill="#C4B6FF"></path>
<path d="M555.662 417.252H535.731V420.033H555.662V417.252Z" fill="#C4B6FF"></path>
<path d="M555.662 465.42H535.731V468.201H555.662V465.42Z" fill="#C4B6FF"></path>
<path d="M555.662 513.586H535.731V516.367H555.662V513.586Z" fill="#C4B6FF"></path>
<path d="M570.689 226.421C570.689 226.421 570.68 226.439 570.662 226.457C563.528 234.218 555.368 239.255 545.701 240.272C545.701 240.272 545.71 240.236 545.728 240.172L556.726 195.959L567.648 182.334C580.202 181.409 570.689 226.421 570.689 226.421Z" fill="#C4B6FF"></path>
<path d="M569.468 215.355C569.468 215.355 562.417 213.483 562.399 213.501C555.265 221.262 552.474 227.846 552.492 227.782C553.136 225.776 559.531 196.438 560.429 197.119C561.355 197.818 569.468 215.355 569.468 215.355Z" fill="#7D55FF"></path>
<path d="M518.249 224.278C518.249 224.278 518.258 224.296 518.276 224.314C525.416 232.558 533.609 240.517 543.237 238.129C543.237 238.129 543.228 238.093 543.21 238.03L532.212 193.816L521.289 180.192C508.736 179.266 518.249 224.278 518.249 224.278Z" fill="#C4B6FF"></path>
<path d="M519.47 213.214C519.47 213.214 526.52 211.342 526.539 211.36C533.673 219.121 536.464 225.705 536.446 225.642C535.801 223.636 529.407 194.298 528.508 194.978C527.583 195.677 519.47 213.214 519.47 213.214Z" fill="#7D55FF"></path>
<path d="M585.049 224.731L583.823 224.06L584.958 223.896L585.049 224.731Z" fill="#DED8D0"></path>
<path d="M479.298 310.78L475.358 289.238" stroke="#005B9D" stroke-width="2" stroke-miterlimit="10" stroke-linecap="round"></path>
<path d="M436.943 227.783C416.513 253.71 402.047 366.601 418.372 384.3C434.171 401.429 566.745 386.733 566.745 386.733" stroke="#005B9D" stroke-width="2" stroke-miterlimit="10" stroke-linecap="round"></path>
<path d="M436.943 227.783C416.513 253.71 402.047 366.601 418.372 384.3C434.171 401.429 566.745 386.733 566.745 386.733" stroke="black" stroke-opacity="0.26" stroke-width="2" stroke-miterlimit="10" stroke-linecap="round"></path>
<path d="M652.688 227.783C691.367 267.499 674.73 367.377 657.563 384.3C640.969 400.659 487.907 376.131 487.907 376.131L488.321 320.831L620.276 340.152L633.314 302.213" stroke="#005B9D" stroke-width="2" stroke-miterlimit="10" stroke-linecap="round"></path>
<path d="M141.837 513.826H222.194C229.949 513.826 236.236 507.539 236.236 499.784V335.365C236.236 327.61 242.523 321.323 250.278 321.323H307.709C315.464 321.323 321.751 315.036 321.751 307.281V208.488" stroke="#FFE458" stroke-width="2" stroke-miterlimit="10" stroke-dasharray="3 3"></path>
<path d="M139.297 517.883C141.67 517.883 143.594 515.959 143.594 513.586C143.594 511.213 141.67 509.289 139.297 509.289C136.924 509.289 135 511.213 135 513.586C135 515.959 136.924 517.883 139.297 517.883Z" fill="#C4B6FF"></path>
<path d="M309.578 325.834C311.951 325.834 313.875 323.91 313.875 321.537C313.875 319.164 311.951 317.24 309.578 317.24C307.205 317.24 305.281 319.164 305.281 321.537C305.281 323.91 307.205 325.834 309.578 325.834Z" fill="#7D55FF"></path>
<path d="M309.578 333.403C316.131 333.403 321.444 328.09 321.444 321.537C321.444 314.983 316.131 309.671 309.578 309.671C303.025 309.671 297.712 314.983 297.712 321.537C297.712 328.09 303.025 333.403 309.578 333.403Z" stroke="#FFE458" stroke-miterlimit="10"></path>
<path d="M413.019 536.295V566.931H578.145" stroke="#005B9D" stroke-width="2" stroke-miterlimit="10" stroke-dasharray="2 2"></path>
<path d="M74.2386 390.607H196.139" stroke="#FFE458" stroke-miterlimit="10" stroke-linecap="round"></path>
<path d="M245.378 466.513V372.861" stroke="#78D2EE" stroke-miterlimit="10"></path>
<path d="M302.439 65.9995H391.799" stroke="#FFE458" stroke-width="2" stroke-miterlimit="10" stroke-dasharray="3 3"></path>
<path d="M321.751 213.666C324.124 213.666 326.048 211.742 326.048 209.369C326.048 206.996 324.124 205.072 321.751 205.072C319.378 205.072 317.454 206.996 317.454 209.369C317.454 211.742 319.378 213.666 321.751 213.666Z" fill="#C4B6FF"></path>
<path d="M724.603 430.258V365.888C724.603 360.594 728.894 356.303 734.188 356.303H736.254C741.547 356.303 745.839 360.594 745.839 365.888V430.258C745.839 435.552 741.547 439.843 736.254 439.843H734.188C728.894 439.843 724.603 435.552 724.603 430.258Z" stroke="#FFE458" stroke-width="2" stroke-miterlimit="10"></path>
<path d="M709.602 313.717H735.221V399.596" stroke="#005B9D" stroke-width="2" stroke-miterlimit="10" stroke-dasharray="2 2"></path>
<path d="M714.172 309.146H705.03V318.289H714.172V309.146Z" stroke="#FFE458" stroke-width="2" stroke-miterlimit="10"></path>
<path d="M136.783 439.554V448.696H145.925V439.554H136.783Z" stroke="#78D2EE" stroke-miterlimit="10"></path>
<path d="M320.19 492.189V501.331H329.333V492.189H320.19Z" stroke="#78D2EE" stroke-miterlimit="10"></path>
<path d="M282.6 234.6H162.567C152.742 234.6 144.777 226.635 144.777 216.809V163.276C144.777 153.451 152.742 145.486 162.567 145.486H282.6C292.425 145.486 300.39 153.451 300.39 163.276V216.809C300.39 226.635 292.425 234.6 282.6 234.6Z" fill="#7D55FF"></path>
<path d="M286.018 142.948C296.403 142.948 304.822 151.367 304.822 161.752V218.334C304.822 228.719 296.403 237.137 286.018 237.137" stroke="#FFE458" stroke-width="2" stroke-miterlimit="10"></path>
<path d="M221.743 178.8H208.676C207.827 178.8 207.14 178.112 207.14 177.264V177.264C207.14 173.167 210.461 169.845 214.558 169.845H215.861C219.958 169.845 223.279 173.167 223.279 177.264V177.264C223.279 178.112 222.592 178.8 221.743 178.8Z" fill="#C4B6FF"></path>
<path d="M215.21 167.868C217.619 167.868 219.573 165.914 219.573 163.504C219.573 161.095 217.619 159.141 215.21 159.141C212.8 159.141 210.846 161.095 210.846 163.504C210.846 165.914 212.8 167.868 215.21 167.868Z" fill="#C4B6FF"></path>
<path d="M246.399 178.8H233.332C232.483 178.8 231.795 178.112 231.795 177.264V177.264C231.795 173.167 235.117 169.845 239.214 169.845H240.517C244.614 169.845 247.935 173.167 247.935 177.264V177.264C247.935 178.112 247.248 178.8 246.399 178.8Z" fill="#C4B6FF"></path>
<path d="M239.865 167.868C242.275 167.868 244.229 165.914 244.229 163.504C244.229 161.095 242.275 159.141 239.865 159.141C237.456 159.141 235.502 161.095 235.502 163.504C235.502 165.914 237.456 167.868 239.865 167.868Z" fill="#C4B6FF"></path>
<path d="M271.055 178.8H257.988C257.139 178.8 256.451 178.112 256.451 177.264V177.264C256.451 173.167 259.773 169.845 263.87 169.845H265.173C269.27 169.845 272.591 173.167 272.591 177.264V177.264C272.591 178.112 271.903 178.8 271.055 178.8Z" fill="#C4B6FF"></path>
<path d="M264.521 167.868C266.931 167.868 268.885 165.914 268.885 163.504C268.885 161.095 266.931 159.141 264.521 159.141C262.112 159.141 260.158 161.095 260.158 163.504C260.158 165.914 262.112 167.868 264.521 167.868Z" fill="#C4B6FF"></path>
<path d="M210.846 190.042H268.885" stroke="#75E0E6" stroke-miterlimit="10"></path>
<path d="M210.846 197.972H256.451" stroke="#75E0E6" stroke-miterlimit="10"></path>
<path d="M210.846 205.9H268.885" stroke="#75E0E6" stroke-miterlimit="10"></path>
<path d="M210.846 213.829H268.885" stroke="#75E0E6" stroke-miterlimit="10"></path>
<path d="M186.498 218.515H164.844C160.483 218.515 156.947 214.98 156.947 210.619V169.541C156.947 165.18 160.483 161.645 164.844 161.645H186.498C190.859 161.645 194.395 165.18 194.395 169.541V210.619C194.395 214.98 190.859 218.515 186.498 218.515Z" fill="#B5CDFB"></path>
<path d="M157.484 217.652C167.528 217.652 175.671 209.51 175.671 199.465C175.671 189.421 167.528 181.278 157.484 181.278C147.44 181.278 139.297 189.421 139.297 199.465C139.297 209.51 147.44 217.652 157.484 217.652Z" stroke="#190065" stroke-width="1.3912" stroke-miterlimit="10"></path>
<path d="M157.484 203.762C159.857 203.762 161.781 201.839 161.781 199.465C161.781 197.092 159.857 195.168 157.484 195.168C155.111 195.168 153.187 197.092 153.187 199.465C153.187 201.839 155.111 203.762 157.484 203.762Z" fill="#190065"></path>
<path d="M55.5093 295.052C64.9032 295.052 72.5185 287.437 72.5185 278.043C72.5185 268.649 64.9032 261.034 55.5093 261.034C46.1153 261.034 38.5 268.649 38.5 278.043C38.5 287.437 46.1153 295.052 55.5093 295.052Z" stroke="#75E0E6" stroke-miterlimit="10"></path>
<path d="M55.5093 278.043H136.785C148.217 278.043 157.484 268.776 157.484 257.344V199.465" stroke="#FFE458" stroke-width="2" stroke-miterlimit="10"></path>
<path d="M55.5093 283.163C58.3371 283.163 60.6295 280.871 60.6295 278.043C60.6295 275.215 58.3371 272.923 55.5093 272.923C52.6815 272.923 50.3891 275.215 50.3891 278.043C50.3891 280.871 52.6815 283.163 55.5093 283.163Z" fill="#C4B6FF"></path>
<path d="M753.592 188.372H656.13C653.699 188.372 651.728 186.401 651.728 183.969V60.9319C651.728 58.5004 653.699 56.5293 656.13 56.5293H753.592C756.024 56.5293 757.995 58.5004 757.995 60.9319V183.969C757.995 186.401 756.024 188.372 753.592 188.372Z" fill="#B5CDFB"></path>
<path fill-rule="evenodd" clip-rule="evenodd" d="M661.409 121.381C661.409 120.829 661.857 120.381 662.409 120.381H720.615C721.168 120.381 721.615 120.829 721.615 121.381C721.615 121.933 721.168 122.381 720.615 122.381H662.409C661.857 122.381 661.409 121.933 661.409 121.381Z" fill="#C4B6FF"></path>
<path fill-rule="evenodd" clip-rule="evenodd" d="M661.409 128.096C661.409 127.543 661.857 127.096 662.409 127.096H747.313C747.865 127.096 748.313 127.543 748.313 128.096C748.313 128.648 747.865 129.096 747.313 129.096H662.409C661.857 129.096 661.409 128.648 661.409 128.096Z" fill="#C4B6FF"></path>
<path fill-rule="evenodd" clip-rule="evenodd" d="M666.091 166.879C666.091 166.327 666.539 165.879 667.091 165.879H692.403C692.956 165.879 693.403 166.327 693.403 166.879C693.403 167.431 692.956 167.879 692.403 167.879H667.091C666.539 167.879 666.091 167.431 666.091 166.879Z" fill="#C4B6FF"></path>
<path fill-rule="evenodd" clip-rule="evenodd" d="M666.091 173.467C666.091 172.915 666.539 172.467 667.091 172.467H692.403C692.956 172.467 693.403 172.915 693.403 173.467C693.403 174.019 692.956 174.467 692.403 174.467H667.091C666.539 174.467 666.091 174.019 666.091 173.467Z" fill="#C4B6FF"></path>
<path fill-rule="evenodd" clip-rule="evenodd" d="M701.384 166.879C701.384 166.327 701.832 165.879 702.384 165.879H722.199C722.751 165.879 723.199 166.327 723.199 166.879C723.199 167.431 722.751 167.879 722.199 167.879H702.384C701.832 167.879 701.384 167.431 701.384 166.879Z" fill="#C4B6FF"></path>
<path fill-rule="evenodd" clip-rule="evenodd" d="M701.384 173.467C701.384 172.915 701.832 172.467 702.384 172.467H722.199C722.751 172.467 723.199 172.915 723.199 173.467C723.199 174.019 722.751 174.467 722.199 174.467H702.384C701.832 174.467 701.384 174.019 701.384 173.467Z" fill="#C4B6FF"></path>
<path fill-rule="evenodd" clip-rule="evenodd" d="M726.498 166.879C726.498 166.327 726.946 165.879 727.498 165.879H747.313C747.865 165.879 748.313 166.327 748.313 166.879C748.313 167.431 747.865 167.879 747.313 167.879H727.498C726.946 167.879 726.498 167.431 726.498 166.879Z" fill="#C4B6FF"></path>
<path fill-rule="evenodd" clip-rule="evenodd" d="M726.498 173.467C726.498 172.915 726.946 172.467 727.498 172.467H747.313C747.865 172.467 748.313 172.915 748.313 173.467C748.313 174.019 747.865 174.467 747.313 174.467H727.498C726.946 174.467 726.498 174.019 726.498 173.467Z" fill="#C4B6FF"></path>
<path d="M692.859 158.966H666.635C664.301 158.966 662.409 157.074 662.409 154.74V142.105C662.409 139.771 664.301 137.879 666.635 137.879H692.859C695.193 137.879 697.085 139.771 697.085 142.105V154.74C697.085 157.074 695.193 158.966 692.859 158.966Z" fill="#C4B6FF"></path>
<path d="M743.087 158.966H731.724C729.39 158.966 727.498 157.074 727.498 154.74V142.105C727.498 139.771 729.39 137.879 731.724 137.879H743.087C745.421 137.879 747.313 139.771 747.313 142.105V154.74C747.313 157.074 745.421 158.966 743.087 158.966Z" fill="#C4B6FF"></path>
<path d="M717.973 158.966H706.61C704.276 158.966 702.384 157.074 702.384 154.74V142.105C702.384 139.771 704.276 137.879 706.61 137.879H717.973C720.307 137.879 722.199 139.771 722.199 142.105V154.74C722.199 157.074 720.307 158.966 717.973 158.966Z" fill="#C4B6FF"></path>
<path d="M704.861 109.842C715.468 109.842 724.066 101.243 724.066 90.6366C724.066 80.03 715.468 71.4316 704.861 71.4316C694.254 71.4316 685.656 80.03 685.656 90.6366C685.656 101.243 694.254 109.842 704.861 109.842Z" fill="#7D55FF"></path>
<path d="M711.044 99.9392H698.678C697.875 99.9392 697.224 99.2882 697.224 98.4852V98.4852C697.224 94.6077 700.367 91.4644 704.244 91.4644H705.478C709.355 91.4644 712.498 94.6077 712.498 98.4852V98.4852C712.498 99.2882 711.847 99.9392 711.044 99.9392Z" fill="#C4B6FF"></path>
<path d="M704.861 89.5929C707.142 89.5929 708.99 87.7441 708.99 85.4634C708.99 83.1828 707.142 81.334 704.861 81.334C702.58 81.334 700.732 83.1828 700.732 85.4634C700.732 87.7441 702.58 89.5929 704.861 89.5929Z" fill="#C4B6FF"></path>
<path opacity="0.47" d="M574.142 118.705L648.564 54.0391C649.409 53.3048 650.491 52.9004 651.611 52.9004H757.274C759.84 52.9004 761.919 54.98 761.919 57.5453V187.355C761.919 189.92 759.84 192 757.274 192H651.603C650.488 192 649.41 191.599 648.567 190.87L574.142 126.603V118.705Z" fill="#B5CDFB"></path>
<path d="M488.322 320.832L458.783 310.836C458.783 310.836 430.27 311.18 426.867 314.114C419.893 320.127 427.362 338.93 433.426 344.026C436.022 346.208 456.189 352.114 456.189 352.114L487.486 355.969L488.322 320.832Z" fill="#FFAE00"></path>
<path d="M569.915 332.388L625.688 311.082C625.688 311.082 647.829 313.263 650.199 314.571C653.151 316.201 649.974 331.202 647.095 334.257C641.734 339.947 637.551 340.648 633.117 341.351C632.205 341.496 629.44 341.007 629.44 341.007L569.915 332.388Z" fill="#FFAE00"></path>
<path d="M583.823 329.71C583.823 329.71 588.203 317.364 608.25 312.476C614.783 310.884 623.952 314.583 623.952 314.583L583.823 329.71Z" fill="#FFAE00"></path>
<path d="M468.889 318.289C468.889 318.289 458.534 299.481 465.834 300.524C473.134 301.567 487.907 320.918 487.907 320.918L468.889 318.289Z" fill="#FFAE00"></path>
</svg>
