<svg width="600" height="450" viewBox="0 0 800 600" fill="none" xmlns="http://www.w3.org/2000/svg" data-reactroot="">
<path d="M44.7734 313.007C44.7734 300.569 49.8167 289.306 57.9697 281.164C66.1112 273.011 77.3738 267.968 89.8123 267.968H272.925C297.802 267.968 317.964 247.795 317.964 222.929V221.482C317.964 200.752 305.943 178.028 284.77 177.585C284.337 177.576 283.9 177.554 283.471 177.498C261.419 174.576 244.407 155.703 244.407 132.851C244.407 120.413 249.45 109.15 257.603 101.009C265.744 92.8557 277.007 87.8125 289.445 87.8125H609.354C634.299 87.8125 655.359 108.22 655.189 133.165C655.105 145.479 650.078 156.621 641.994 164.694C636.419 170.269 629.397 174.396 621.527 176.443C617.897 177.381 614.086 177.89 610.151 177.89H586.631C567.272 182.934 552.979 200.54 552.979 221.482V222.929C552.979 247.795 573.141 267.968 598.018 267.968H744.165C769.135 267.968 790.195 288.397 790 313.365C789.904 325.662 784.88 336.775 776.805 344.85C768.664 353.003 757.401 358.046 744.963 358.046H533.665C521.227 358.046 509.964 363.089 501.823 371.242C493.67 379.384 488.626 390.646 488.626 403.085C488.626 427.951 508.788 448.124 533.665 448.124H744.165C769.134 448.124 790.194 468.552 790 493.52C789.904 505.816 784.88 516.931 776.805 525.005C768.664 533.158 757.401 538.201 744.963 538.201H89.8123C64.9352 538.201 44.7734 518.028 44.7734 493.162C44.7734 480.724 49.8167 469.461 57.9697 461.32C66.1112 453.167 77.3738 448.124 89.8123 448.124H206.407C218.845 448.124 230.108 443.08 238.261 434.927C246.324 426.853 251.349 415.739 251.444 403.443C251.639 378.474 230.579 358.046 205.609 358.046H89.8123C64.9352 358.046 44.7734 337.873 44.7734 313.007Z" fill="#7D55FF"></path>
<path d="M10 287.195C10 274.756 15.0433 263.494 23.1962 255.352C31.3378 247.199 42.6003 242.156 55.0389 242.156H238.151C263.029 242.156 283.19 221.982 283.19 197.117V195.669C283.19 174.939 271.17 152.215 249.996 151.772C249.564 151.763 249.127 151.742 248.698 151.685C226.646 148.764 209.633 129.891 209.633 107.039C209.633 94.6004 214.676 83.3379 222.829 75.1964C230.971 67.0432 242.233 62 254.672 62H574.58C599.525 62 620.586 82.4078 620.416 107.352C620.332 119.667 615.305 130.808 607.22 138.882C601.646 144.457 594.624 148.584 586.753 150.631C583.124 151.569 579.313 152.078 575.378 152.078H551.858C532.499 157.121 518.206 174.727 518.206 195.669V197.117C518.206 221.982 538.367 242.156 563.245 242.156H709.392C734.361 242.156 755.421 262.584 755.227 287.553C755.131 299.849 750.106 310.963 742.032 319.037C733.89 327.19 722.628 332.233 710.189 332.233H498.892C486.453 332.233 475.191 337.277 467.049 345.43C458.896 353.571 453.853 364.834 453.853 377.272C453.853 402.138 474.015 422.311 498.892 422.311H709.392C734.361 422.311 755.421 442.739 755.227 467.707C755.131 480.004 750.107 491.118 742.032 499.193C733.89 507.346 722.628 512.389 710.189 512.389H55.0389C30.1618 512.389 10 492.216 10 467.35C10 454.911 15.0433 443.649 23.1962 435.507C31.3378 427.355 42.6003 422.311 55.0389 422.311H171.633C184.072 422.311 195.335 417.268 203.487 409.115C211.551 401.04 216.575 389.927 216.671 377.631C216.866 352.662 195.805 332.233 170.836 332.233H55.0389C30.1618 332.233 10 312.06 10 287.195Z" fill="#C4B6FF"></path>
</svg>
