<svg width="600" height="450" viewBox="0 0 800 600" fill="none" xmlns="http://www.w3.org/2000/svg" data-reactroot="">
<path opacity="0.2" d="M361.29 498.112C390.134 498.112 413.517 474.729 413.517 445.885C413.517 417.041 390.134 393.658 361.29 393.658C332.445 393.658 309.062 417.041 309.062 445.885C309.062 474.729 332.445 498.112 361.29 498.112Z" fill="#C4B6FF"></path>
<path d="M525.463 543.184H268.441V566.282H525.463V543.184Z" fill="#B5CDFB"></path>
<path d="M577.904 566.283H216V589.381H577.904V566.283Z" fill="#C4B6FF"></path>
<path d="M473.476 90.3662H431.055V132.788H473.476V90.3662Z" fill="#C4B6FF"></path>
<path d="M525.463 330.963H268.441V354.061H525.463V330.963Z" fill="#C4B6FF"></path>
<path d="M340.938 494.399V543.184H364.036V494.399H340.938Z" fill="#C4B6FF"></path>
<path d="M458.111 202.933V330.963H473.476V202.933H458.111Z" fill="#7D55FF"></path>
<path d="M456.867 199.619V166.756H447.659V199.619H456.867Z" fill="#7D55FF"></path>
<path d="M398.111 140.943H506.416V132.787H398.111V140.943Z" fill="#7D55FF"></path>
<path d="M398.111 90.3662L506.416 90.3662V82.2098L398.111 82.2098V90.3662Z" fill="#7D55FF"></path>
<path fill-rule="evenodd" clip-rule="evenodd" d="M352.485 385.09C322.47 385.09 298.139 409.422 298.139 439.436C298.139 469.451 322.47 493.782 352.485 493.782C382.499 493.782 406.831 469.451 406.831 439.436C406.831 409.422 382.499 385.09 352.485 385.09ZM296.902 439.436C296.902 408.739 321.787 383.854 352.485 383.854C383.182 383.854 408.067 408.739 408.067 439.436C408.067 470.134 383.182 495.019 352.485 495.019C321.787 495.019 296.902 470.134 296.902 439.436Z" fill="#C4B6FF"></path>
<path fill-rule="evenodd" clip-rule="evenodd" d="M402.084 367.961C396.525 367.961 392.018 372.468 392.018 378.027C392.018 383.587 396.525 388.093 402.084 388.093C407.644 388.093 412.15 383.587 412.15 378.027C412.15 372.468 407.644 367.961 402.084 367.961ZM378.119 378.027C378.119 364.792 388.849 354.062 402.084 354.062C415.32 354.062 426.049 364.792 426.049 378.027C426.049 391.263 415.32 401.993 402.084 401.993C388.849 401.993 378.119 391.263 378.119 378.027Z" fill="#7D55FF"></path>
<path d="M488.532 82.2092C499.399 82.2092 508.209 73.3996 508.209 62.5325C508.209 51.6655 499.399 42.856 488.532 42.856C477.665 42.856 468.855 51.6655 468.855 62.5325C468.855 73.3996 477.665 82.2092 488.532 82.2092Z" fill="#B5CDFB"></path>
<path opacity="0.2" d="M452.266 166.757C459.394 166.757 465.173 160.978 465.173 153.85C465.173 146.722 459.394 140.943 452.266 140.943C445.138 140.943 439.359 146.722 439.359 153.85C439.359 160.978 445.138 166.757 452.266 166.757Z" fill="#C4B6FF"></path>
<path d="M488.532 42.856L479.047 26.428L469.562 10H488.532H507.501L498.017 26.428L488.532 42.856Z" fill="#C4B6FF"></path>
<path d="M572.96 197.357H408.891V205.514H572.96V197.357Z" fill="#C4B6FF"></path>
<path fill-rule="evenodd" clip-rule="evenodd" d="M426.59 330.346H555.263V331.582H426.59V330.346Z" fill="#B5CDFB"></path>
<path fill-rule="evenodd" clip-rule="evenodd" d="M253.734 565.665H382.407V566.901H253.734V565.665Z" fill="#B89F9F"></path>
<path fill-rule="evenodd" clip-rule="evenodd" d="M454.877 588.764H583.55V590H454.877V588.764Z" fill="#B89F9F"></path>
<path fill-rule="evenodd" clip-rule="evenodd" d="M364.033 204.896H492.706V206.132H364.033V204.896Z" fill="#B5CDFB"></path>
<path fill-rule="evenodd" clip-rule="evenodd" d="M480.323 90.3609C480.325 90.7023 480.05 90.9808 479.708 90.9829L443.909 91.2077C443.568 91.2098 443.289 90.9348 443.287 90.5934C443.285 90.252 443.56 89.9735 443.901 89.9713L479.701 89.7466C480.042 89.7445 480.321 90.0195 480.323 90.3609Z" fill="#B5CDFB"></path>
</svg>
